<svg width="15" height="15" viewBox="0 0 15 15" fill="none" xmlns="http://www.w3.org/2000/svg">
<g clip-path="url(#clip0_167_1217)">
<path d="M13.0467 6.34013C13.0269 10.6632 7.49201 14.3434 7.49201 14.3434C7.49201 14.3434 1.99121 10.6125 2.01108 6.28942C2.01785 4.81527 2.60569 3.40417 3.64527 2.36655C4.68486 1.32892 6.09103 0.749772 7.55445 0.756497C9.01787 0.763222 10.4187 1.35527 11.4487 2.40241C12.4787 3.44954 13.0535 4.86598 13.0467 6.34013Z" stroke="#389FFF" stroke-width="2" stroke-linecap="round" stroke-linejoin="round"/>
<path d="M7.52049 8.16752C8.53629 8.17219 9.36358 7.34647 9.36828 6.32322C9.37298 5.29997 8.55332 4.46667 7.53752 4.462C6.52171 4.45734 5.69443 5.28306 5.68973 6.30631C5.68503 7.32956 6.50469 8.16285 7.52049 8.16752Z" stroke="#389FFF" stroke-width="2" stroke-linecap="round" stroke-linejoin="round"/>
</g>
<defs>
<clipPath id="clip0_167_1217">
<rect width="14.7144" height="14.8222" fill="white" transform="translate(0.200195 0.105103) rotate(0.263294)"/>
</clipPath>
</defs>
</svg>
